HIERARCHY
ROOT Hips
{
	OFFSET 0.000000 0.000000 0.000000
	CHANNELS 6 Xposition Yposition Zposition Zrotation Yrotation Xrotation 
	JOINT LowerBack
	{
		OFFSET 0.000000 0.000000 0.000000
		CHANNELS 3 Zrotation Yrotation Xrotation
		JOINT Spine
		{
			OFFSET 0.028270 2.035590 -0.193380
			CHANNELS 3 Zrotation Yrotation Xrotation
			JOINT Spine1
			{
				OFFSET 0.056720 2.048850 -0.042750
				CHANNELS 3 Zrotation Yrotation Xrotation
				JOINT Neck
				{
					OFFSET 0.000000 0.000000 0.000000
					CHANNELS 3 Zrotation Yrotation Xrotation
					JOINT Neck1
					{
						OFFSET -0.054170 1.746240 0.172020
						CHANNELS 3 Zrotation Yrotation Xrotation
						JOINT Head
						{
							OFFSET 0.104070 1.761360 -0.123970
							CHANNELS 3 Zrotation Yrotation Xrotation
							End Site
							{
								OFFSET 0.000000 0.000000 0.000000
							}
						}
					}
				}
				JOINT LeftShoulder
				{
					OFFSET 0.000000 0.000000 0.000000
					CHANNELS 3 Zrotation Yrotation Xrotation
					JOINT LeftArm
					{
						OFFSET 3.362410 1.200890 -0.311210
						CHANNELS 3 Zrotation Yrotation Xrotation
						JOINT LeftForeArm
						{
							OFFSET 4.983000 -0.000000 -0.000000
							CHANNELS 3 Zrotation Yrotation Xrotation
							JOINT LeftHand
							{
								OFFSET 3.483560 -0.000000 -0.000000
								CHANNELS 3 Zrotation Yrotation Xrotation
								JOINT LeftFingerBase
								{
									OFFSET 0.000000 0.000000 0.000000
									CHANNELS 3 Zrotation Yrotation Xrotation
									JOINT LeftHandIndex1
									{
										OFFSET 0.715260 -0.000000 -0.000000
										CHANNELS 3 Zrotation Yrotation Xrotation
										End Site
										{
											OFFSET 0.000000 0.000000 0.000000
										}
									}
								}
								JOINT LThumb
								{
									OFFSET 0.000000 0.000000 0.000000
									CHANNELS 3 Zrotation Yrotation Xrotation
									End Site
									{
										OFFSET 0.000000 0.000000 0.000000
									}
								}
							}
						}
					}
				}
				JOINT RightShoulder
				{
					OFFSET 0.000000 0.000000 0.000000
					CHANNELS 3 Zrotation Yrotation Xrotation
					JOINT RightArm
					{
						OFFSET -3.136600 1.374050 -0.404650
						CHANNELS 3 Zrotation Yrotation Xrotation
						JOINT RightForeArm
						{
							OFFSET -5.241900 -0.000000 -0.000000
							CHANNELS 3 Zrotation Yrotation Xrotation
							JOINT RightHand
							{
								OFFSET -3.444170 -0.000000 -0.000000
								CHANNELS 3 Zrotation Yrotation Xrotation
								JOINT RightFingerBase
								{
									OFFSET 0.000000 0.000000 0.000000
									CHANNELS 3 Zrotation Yrotation Xrotation
									JOINT RightHandIndex1
									{
										OFFSET -0.622530 -0.000000 -0.000000
										CHANNELS 3 Zrotation Yrotation Xrotation
										End Site
										{
											OFFSET 0.000000 0.000000 0.000000
										}
									}
								}
								JOINT RThumb
								{
									OFFSET 0.000000 0.000000 0.000000
									CHANNELS 3 Zrotation Yrotation Xrotation
									End Site
									{
										OFFSET 0.000000 0.000000 0.000000
									}
								}
							}
						}
					}
				}
			}
		}
	}
}
}
MOTION
Frames: 17
Frame Time: 0.008333
2.358914 17.048854 0.532742 -19.969161 -81.228427 9.677113 -8.009053 -2.714876 0.045254 -2.080394 -2.320031 -2.364771 -4.628467 -2.302859 1.595603 7.971707 -20.162878 -7.288279 -0.479547 -0.039359 0.101750 0.000000 0.000000 0.000000 6.207574 15.400034 0.056620 -54.974103 17.960529 -2.470711 -3.559812 -35.361806 0.001180 -3.649696 0.708668 -0.020595 -0.114989 0.021912 -0.000000 0.000000 0.000000 0.000000 0.000000 0.000000 0.000000 5.162724 -16.572688 -0.861169 70.468298 -13.246173 7.212558 2.551099 36.718987 0.013920 1.330393 7.332330 0.081386 0.084422 -0.077553 -0.000000 0.000000 0.000000 0.000000 0.000000 0.000000 0.000000 
2.358893 17.059278 0.561300 -20.842389 -80.573880 10.370287 -8.021110 -2.856384 0.195684 -2.087081 -2.471231 -2.340916 -4.651329 -2.451867 1.559784 8.025661 -20.172383 -7.279448 -0.476378 -0.038890 0.101915 0.000000 0.000000 0.000000 6.394596 14.907992 0.068451 -54.465977 17.659052 -2.004651 -3.491944 -35.775455 0.001098 -3.567543 0.814678 -0.023197 -0.112636 0.024026 -0.000000 0.000000 0.000000 0.000000 0.000000 0.000000 0.000000 5.205679 -16.666574 -0.816673 70.720095 -13.434393 6.982313 2.597233 36.015622 0.013905 1.529756 7.281044 0.093669 0.083777 -0.074021 -0.000000 0.000000 0.000000 0.000000 0.000000 0.000000 0.000000 
2.361009 17.070280 0.588921 -21.822161 -79.951523 11.196805 -8.005362 -3.006169 0.340039 -2.087024 -2.632202 -2.316553 -4.674099 -2.610778 1.529639 8.086468 -20.191388 -7.283402 -0.471204 -0.038052 0.098804 0.000000 0.000000 0.000000 6.569282 14.446635 0.084268 -53.961341 17.350321 -1.571104 -3.422752 -36.207767 0.001053 -3.474694 0.912386 -0.025397 -0.110386 0.026537 -0.000000 0.000000 0.000000 0.000000 0.000000 0.000000 0.000000 5.248273 -16.772013 -0.772857 70.972275 -13.568485 6.757484 2.641177 35.322337 0.013902 1.698798 7.253639 0.104154 0.083314 -0.070911 -0.000000 0.000000 0.000000 0.000000 0.000000 0.000000 0.000000 
2.365483 17.081469 0.615471 -22.855205 -79.363560 12.072471 -7.967925 -3.161570 0.510272 -2.082026 -2.800535 -2.286670 -4.697666 -2.776721 1.499054 8.152479 -20.204986 -7.296430 -0.466208 -0.037061 0.093155 0.000000 0.000000 0.000000 6.730640 14.000598 0.104163 -53.460374 17.057371 -1.180622 -3.352469 -36.671615 0.001054 -3.375512 0.996257 -0.026996 -0.108203 0.029410 -0.000000 0.000000 0.000000 0.000000 0.000000 0.000000 0.000000 5.294576 -16.870829 -0.730352 71.223466 -13.678415 6.527858 2.679861 34.686814 0.013866 1.838300 7.224364 0.112540 0.082909 -0.068176 -0.000000 0.000000 0.000000 0.000000 0.000000 0.000000 0.000000 
2.372481 17.092685 0.640897 -23.978272 -78.823658 13.038302 -7.901747 -3.318362 0.701949 -2.070725 -2.972066 -2.252011 -4.722122 -2.945589 1.469463 8.221070 -20.216739 -7.318374 -0.461208 -0.035913 0.085048 0.000000 0.000000 0.000000 6.875636 13.580185 0.127504 -52.962310 16.774153 -0.827107 -3.281455 -37.161577 0.001100 -3.265171 1.061900 -0.027794 -0.106161 0.032653 -0.000000 0.000000 0.000000 0.000000 0.000000 0.000000 0.000000 5.341486 -16.965161 -0.689678 71.470302 -13.757217 6.317795 2.713097 34.110344 0.013816 1.946163 7.203591 0.119028 0.082566 -0.065841 -0.000000 0.000000 0.000000 0.000000 0.000000 0.000000 0.000000 
2.382113 17.103811 0.665252 -25.209281 -78.340254 14.110786 -7.803207 -3.472668 0.914148 -2.052555 -3.142864 -2.212906 -4.747434 -3.113477 1.440873 8.289728 -20.228748 -7.347363 -0.456590 -0.034677 0.074991 0.000000 0.000000 0.000000 7.003145 13.188234 0.153309 -52.467438 16.499770 -0.508398 -3.210172 -37.671996 0.001187 -3.140526 1.106590 -0.027791 -0.104315 0.036243 -0.000000 0.000000 0.000000 0.000000 0.000000 0.000000 0.000000 5.388324 -17.055685 -0.651662 71.706740 -13.808029 6.154621 2.739761 33.605591 0.013752 2.019672 7.190355 0.123516 0.082269 -0.063870 -0.000000 0.000000 0.000000 0.000000 0.000000 0.000000 0.000000 
2.394660 17.114635 0.688624 -26.556189 -77.914389 15.285663 -7.669401 -3.621437 1.159229 -2.027121 -3.310064 -2.167244 -4.773649 -3.277342 1.412254 8.354871 -20.236709 -7.380333 -0.452913 -0.033445 0.063673 0.000000 0.000000 0.000000 7.112545 12.823195 0.180995 -51.980061 16.232741 -0.225694 -3.139339 -38.195189 0.001300 -2.999733 1.130079 -0.026986 -0.102721 0.040130 -0.000000 0.000000 0.000000 0.000000 0.000000 0.000000 0.000000 5.431951 -17.137209 -0.616807 71.933999 -13.837358 6.043168 2.759818 33.181314 0.013674 2.066839 7.184793 0.126405 0.081930 -0.062229 -0.000000 0.000000 0.000000 0.000000 0.000000 0.000000 0.000000 
2.409922 17.125154 0.711160 -28.019247 -77.544471 16.564567 -7.499321 -3.762641 1.432627 -1.994288 -3.471392 -2.116031 -4.800307 -3.435009 1.383732 8.413407 -20.240588 -7.413191 -0.450657 -0.032333 0.052222 0.000000 0.000000 0.000000 7.204215 12.483253 0.209197 -51.501670 15.972776 0.025042 -3.069574 -38.722514 0.001423 -2.842228 1.134484 -0.025480 -0.101414 0.044232 0.000000 0.000000 0.000000 0.000000 0.000000 0.000000 0.000000 5.470643 -17.209674 -0.586093 72.149780 -13.854591 5.993713 2.773415 32.843867 0.013581 2.094708 7.186067 0.128195 0.081493 -0.060853 -0.000000 0.000000 0.000000 0.000000 0.000000 0.000000 0.000000 
2.428111 17.135235 0.733041 -29.609000 -77.224644 17.948535 -7.289253 -3.894607 1.743245 -1.953345 -3.625274 -2.057626 -4.826978 -3.584786 1.355120 8.462056 -20.239601 -7.442716 -0.450119 -0.031419 0.041392 0.000000 0.000000 0.000000 7.277512 12.167058 0.237104 -51.037721 15.714727 0.244191 -3.001651 -39.244748 0.001540 -2.670125 1.123418 -0.023474 -0.100411 0.048462 0.000000 0.000000 0.000000 0.000000 0.000000 0.000000 0.000000 5.501334 -17.272653 -0.560155 72.353345 -13.862823 6.017748 2.780567 32.595488 0.013468 2.107538 7.191653 0.129085 0.080917 -0.059666 -0.000000 0.000000 0.000000 0.000000 0.000000 0.000000 0.000000 
2.449159 17.144797 0.754542 -31.316507 -76.944840 19.426000 -7.038997 -4.017109 2.090425 -1.904219 -3.771261 -1.992232 -4.852900 -3.726270 1.326367 8.497554 -20.232004 -7.464420 -0.451585 -0.030807 0.032363 0.000000 0.000000 0.000000 7.332329 11.870895 0.263560 -50.590885 15.456338 0.436319 -2.936077 -39.755325 0.001636 -2.487893 1.101776 -0.021267 -0.099680 0.052716 0.000000 0.000000 0.000000 0.000000 0.000000 0.000000 0.000000 5.520721 -17.325393 -0.539792 72.545324 -13.870314 6.113547 2.782056 32.434036 0.013332 2.114380 7.200324 0.129675 0.080149 -0.058596 -0.000000 0.000000 0.000000 0.000000 0.000000 0.000000 0.000000 
2.472844 17.153769 0.775816 -33.121826 -76.693162 20.977986 -6.749571 -4.130695 2.472949 -1.847036 -3.909616 -1.920033 -4.877366 -3.859767 1.297986 8.517537 -20.216840 -7.474471 -0.455236 -0.030579 0.026142 0.000000 0.000000 0.000000 7.368480 11.591993 0.287600 -50.163760 15.194498 0.606807 -2.873328 -40.249891 0.001702 -2.302375 1.075048 -0.018961 -0.099160 0.056883 0.000000 0.000000 0.000000 0.000000 0.000000 0.000000 0.000000 5.526156 -17.368478 -0.525626 72.726916 -13.883109 6.277170 2.778753 32.354117 0.013171 2.122005 7.209857 0.130366 0.079165 -0.057565 -0.000000 0.000000 0.000000 0.000000 0.000000 0.000000 0.000000 
2.499288 17.161919 0.797406 -35.039067 -76.451244 22.603792 -6.410214 -4.235907 2.903647 -1.779545 -4.041365 -1.838640 -4.899759 -3.986168 1.269949 8.517801 -20.192069 -7.470243 -0.461094 -0.030774 0.023270 0.000000 0.000000 0.000000 7.380584 11.331180 0.309108 -49.758959 14.916574 0.762149 -2.813783 -40.723750 0.001735 -2.121390 1.048249 -0.016756 -0.098776 0.060880 0.000000 0.000000 0.000000 0.000000 0.000000 0.000000 0.000000 5.511691 -17.401375 -0.518029 72.900848 -13.903092 6.492738 2.771976 32.346757 0.012981 2.138379 7.218509 0.131654 0.077927 -0.056514 -0.000000 0.000000 0.000000 0.000000 0.000000 0.000000 0.000000 
2.527378 17.169470 0.818566 -36.928369 -76.220002 24.209659 -6.056687 -4.336332 3.338545 -1.708836 -4.167651 -1.755956 -4.919234 -4.107196 1.244611 8.503967 -20.160901 -7.447003 -0.469179 -0.031498 0.025371 0.000000 0.000000 0.000000 7.381837 11.077704 0.325485 -49.372511 14.640869 0.909650 -2.756983 -41.186461 0.001743 -1.954475 1.024398 -0.014850 -0.098361 0.064626 0.000000 0.000000 0.000000 0.000000 0.000000 0.000000 0.000000 5.484709 -17.429826 -0.517670 73.067644 -13.940854 6.764255 2.762135 32.400711 0.012770 2.164157 7.226256 0.133442 0.076492 -0.055367 -0.000000 0.000000 0.000000 0.000000 0.000000 0.000000 0.000000 
2.557740 17.175819 0.840358 -38.878532 -75.971594 25.841475 -5.653268 -4.431038 3.815579 -1.627715 -4.289566 -1.665032 -4.935729 -4.223498 1.221201 8.468575 -20.122010 -7.405104 -0.479238 -0.032696 0.031925 0.000000 0.000000 0.000000 7.356678 10.840278 0.337994 -49.007273 14.338641 1.056394 -2.703045 -41.634065 0.001733 -1.809051 1.007262 -0.013348 -0.097837 0.068087 0.000000 0.000000 0.000000 0.000000 0.000000 0.000000 0.000000 5.433884 -17.453319 -0.524205 73.231415 -13.990203 7.060682 2.751246 32.501164 0.012537 2.205709 7.233115 0.136329 0.074829 -0.054109 -0.000000 0.000000 0.000000 0.000000 0.000000 0.000000 0.000000 
2.589154 17.181170 0.861854 -40.738406 -75.707692 27.394461 -5.237931 -4.524100 4.292597 -1.543824 -4.408960 -1.573307 -4.948917 -4.337412 1.201998 8.419750 -20.078763 -7.341474 -0.491361 -0.034445 0.044077 0.000000 0.000000 0.000000 7.321089 10.609161 0.344329 -48.658581 14.026951 1.209259 -2.651097 -42.079515 0.001721 -1.691954 0.996236 -0.012246 -0.097041 0.071260 0.000000 0.000000 0.000000 0.000000 0.000000 0.000000 0.000000 5.370153 -17.477725 -0.538112 73.392442 -14.063126 7.381283 2.739253 32.640073 0.012279 2.259812 7.235848 0.139816 0.073015 -0.052675 -0.000000 0.000000 0.000000 0.000000 0.000000 0.000000 0.000000 
2.621044 17.185435 0.882874 -42.459868 -75.418845 28.830029 -4.817822 -4.617351 4.761255 -1.458711 -4.527430 -1.482054 -4.959168 -4.450578 1.188051 8.360888 -20.033412 -7.255815 -0.505651 -0.036750 0.061907 0.000000 0.000000 0.000000 7.279674 10.383520 0.343767 -48.325019 13.703247 1.373052 -2.600425 -42.530045 0.001724 -1.606583 0.990458 -0.011449 -0.095870 0.074179 0.000000 0.000000 0.000000 0.000000 0.000000 0.000000 0.000000 5.298247 -17.506912 -0.559407 73.551971 -14.163769 7.712658 2.726743 32.807301 0.012000 2.324314 7.232680 0.144002 0.071097 -0.051043 -0.000000 0.000000 0.000000 0.000000 0.000000 0.000000 0.000000 
2.653336 17.188298 0.903791 -44.078963 -75.093854 30.172799 -4.375507 -4.709745 5.231110 -1.368986 -4.644761 -1.389528 -4.967196 -4.562685 1.179866 8.290843 -19.989546 -7.150256 -0.521925 -0.039545 0.084673 0.000000 0.000000 0.000000 7.225487 10.168368 0.336650 -48.005656 13.355477 1.549672 -2.550292 -42.992848 0.001750 -1.552900 0.989079 -0.010954 -0.094287 0.076899 0.000000 0.000000 0.000000 0.000000 0.000000 0.000000 0.000000 5.215517 -17.544523 -0.587006 73.711909 -14.285781 8.032662 2.715569 32.985426 0.011710 2.399464 7.229080 0.148787 0.069129 -0.049242 -0.000000 0.000000 0.000000 0.000000 0.000000 0.000000 0.000000 
